<?xml version="1.0" standalone="no"?>
<svg class="icon" width="24px" height="13px" viewBox="0 0 1922 1024" version="1.1"
    xmlns="http://www.w3.org/2000/svg">
    <path fill="#ffffff" d="M513.810604 0c308.858273 0 602.991192 297.820939 602.991192 297.820939l-132.287657 102.890399S723.386322 178.321089 513.810604 178.321089c-143.391802 0-329.062206 104.787859-329.062206 323.556901 0 213.250375 136.029126 334.594235 330.906216 334.594235C1023.05127 836.485587 1203.216369 0 1363.15081 0c104.787859 0 175.047303 244.772252 297.820938 450.406065 147.06646 246.349014 261.475239 472.814793 261.47524 481.660695 0 49.641277-46.380854 91.919878-79.479494 91.919878S1206.891026 577.255229 1206.891026 577.255229l148.910469-108.462516 189.345061 128.679812L1359.476153 259.230358c-57.912596 57.899234-336.424882 764.769642-834.628215 764.769642C329.970848 1023.986638 0 880.581473 0 500.047343 0 284.952958 162.687093 0 513.810604 0z" />
</svg>