<?xml version="1.0" standalone="no"?>
<!DOCTYPE svg PUBLIC "-//W3C//DTD SVG 20010904//EN"
 "http://www.w3.org/TR/2001/REC-SVG-20010904/DTD/svg10.dtd">
<svg version="1.0" xmlns="http://www.w3.org/2000/svg"
 width="700.000000pt" height="700.000000pt" viewBox="0 0 700.000000 700.000000"
 preserveAspectRatio="xMidYMid meet">
<metadata>
Created by potrace 1.14, written by Peter Selinger 2001-2017
</metadata>
<g transform="translate(0.000000,700.000000) scale(0.100000,-0.100000)"
fill="#000000" stroke="none">
<path d="M3327 6414 c-1 -1 -35 -4 -76 -8 -106 -9 -272 -34 -376 -57 -49 -11
-97 -22 -106 -24 -54 -12 -241 -74 -339 -112 -371 -146 -699 -361 -985 -648
-184 -183 -284 -309 -441 -555 -181 -284 -350 -758 -390 -1095 -4 -27 -8 -52
-9 -55 -16 -28 -24 -436 -12 -595 27 -354 134 -739 293 -1056 77 -155 232
-407 256 -417 4 -2 8 -8 8 -13 0 -5 6 -17 14 -26 179 -223 338 -387 506 -522
89 -71 249 -186 305 -217 11 -6 49 -28 85 -49 356 -205 789 -339 1198 -372
105 -8 357 -9 467 -1 115 9 285 34 400 59 50 11 100 22 113 25 13 3 91 27 173
54 622 207 1139 599 1511 1145 92 136 204 342 262 485 15 36 31 74 36 85 61
133 139 443 174 685 26 179 26 538 1 730 -13 91 -37 227 -50 280 -8 30 -16 66
-19 80 -16 84 -100 332 -148 440 -157 350 -357 642 -622 905 -302 301 -621
506 -1041 670 -11 5 -22 9 -25 9 -3 1 -41 14 -85 28 -162 54 -411 110 -545
123 -19 2 -66 7 -105 11 -62 6 -422 13 -428 8z m349 -588 c84 -6 211 -22 235
-30 8 -3 32 -8 54 -11 137 -19 410 -113 582 -201 111 -56 316 -183 374 -232
283 -237 439 -415 597 -682 167 -284 275 -626 307 -975 7 -72 8 -355 1 -390
-2 -11 -7 -51 -12 -90 -4 -38 -8 -72 -9 -75 0 -3 -5 -27 -10 -55 -5 -27 -9
-52 -10 -55 -1 -6 -17 -81 -21 -96 -31 -153 -145 -432 -246 -604 -237 -402
-576 -719 -983 -919 -104 -52 -305 -132 -365 -146 -8 -2 -31 -9 -50 -15 -57
-17 -260 -58 -325 -65 -33 -3 -73 -8 -90 -10 -38 -6 -371 -6 -405 -1 -14 2
-50 7 -80 10 -784 93 -1476 589 -1822 1306 -84 174 -163 415 -193 590 -14 85
-24 160 -30 220 -6 72 -7 363 -1 395 2 11 7 52 11 90 21 214 118 537 225 750
235 464 599 828 1050 1052 173 86 414 170 565 198 257 47 411 56 651 41z"/>
<path d="M3210 4082 l1 -877 762 -457 c743 -446 762 -456 777 -436 8 11 59 92
112 179 l97 158 -90 53 c-49 29 -97 58 -107 63 -9 6 -78 46 -152 90 -74 44
-142 85 -152 90 -9 6 -38 23 -65 39 -26 16 -158 94 -293 174 -266 157 -442
263 -450 269 -2 2 -4 347 -5 766 l0 762 -217 2 -218 2 0 -877z"/>
</g>
</svg>
