<svg _ngcontent-cof-c18="" aria-hidden="true" width="100%" height="8" fill="none"
    xmlns="http://www.w3.org/2000/svg">
    <pattern _ngcontent-cof-c18="" id="a" width="91" height="8" patternUnits="userSpaceOnUse">
        <g _ngcontent-cof-c18="">
            <path _ngcontent-cof-c18=""
                d="M114 4c-5.067 4.667-10.133 4.667-15.2 0S88.667-.667 83.6 4 73.467 8.667 68.4 4 58.267-.667 53.2 4 43.067 8.667 38 4 27.867-.667 22.8 4 12.667 8.667 7.6 4-2.533-.667-7.6 4s-10.133 4.667-15.2 0S-32.933-.667-38 4s-10.133 4.667-15.2 0-10.133-4.667-15.2 0-10.133 4.667-15.2 0-10.133-4.667-15.2 0-10.133 4.667-15.2 0-10.133-4.667-15.2 0-10.133 4.667-15.2 0-10.133-4.667-15.2 0-10.133 4.667-15.2 0-10.133-4.667-15.2 0-10.133 4.667-15.2 0-10.133-4.667-15.2 0-10.133 4.667-15.2 0-10.133-4.667-15.2 0-10.133 4.667-15.2 0-10.133-4.667-15.2 0-10.133 4.667-15.2 0-10.133-4.667-15.2 0-10.133 4.667-15.2 0-10.133-4.667-15.2 0-10.133 4.667-15.2 0-10.133-4.667-15.2 0-10.133 4.667-15.2 0-10.133-4.667-15.2 0-10.133 4.667-15.2 0"
                stroke="#9E9E9E" stroke-linecap="square"></path>
        </g>
    </pattern>
    <rect _ngcontent-cof-c18="" width="100%" height="100%" fill="url(#a)" opacity="0.3"></rect>
</svg>