<?xml version="1.0" standalone="no"?>
<!DOCTYPE svg PUBLIC "-//W3C//DTD SVG 20010904//EN"
 "http://www.w3.org/TR/2001/REC-SVG-20010904/DTD/svg10.dtd">
<svg version="1.0" xmlns="http://www.w3.org/2000/svg"
 width="700.000000pt" height="700.000000pt" viewBox="0 0 700.000000 700.000000"
 preserveAspectRatio="xMidYMid meet">
<metadata>
Created by potrace 1.14, written by Peter Selinger 2001-2017
</metadata>
<g transform="translate(0.000000,700.000000) scale(0.100000,-0.100000)"
fill="#000000" stroke="none">
<path d="M2585 6996 c-5 -2 -39 -12 -75 -22 -186 -52 -370 -229 -476 -459 -38
-83 -77 -196 -90 -260 -5 -22 -9 -42 -9 -45 -1 -5 -11 -65 -21 -135 -5 -38 -5
-283 0 -310 2 -12 7 -48 11 -80 22 -178 128 -439 230 -565 301 -374 738 -374
1028 0 104 135 196 349 223 516 3 20 8 46 11 58 10 41 12 362 3 426 -57 397
-253 708 -524 830 -34 16 -85 33 -113 38 -50 9 -179 14 -198 8z"/>
<path d="M4615 6814 c-134 -35 -268 -123 -405 -267 -182 -191 -329 -471 -358
-682 -11 -73 -9 -385 3 -445 70 -381 262 -590 596 -649 353 -62 692 151 896
560 113 229 165 472 138 649 -5 39 -11 66 -29 140 -12 47 -71 184 -105 241
-187 321 -502 514 -736 453z"/>
<path d="M1008 5385 c-2 -1 -23 -5 -48 -8 -262 -31 -482 -263 -598 -628 -17
-53 -33 -107 -36 -120 -64 -321 -64 -446 1 -679 44 -158 144 -337 248 -444
133 -136 287 -205 471 -211 236 -7 469 83 616 239 118 126 213 356 234 571 16
159 8 424 -16 530 -27 119 -93 257 -179 373 -173 234 -390 365 -620 376 -39 2
-71 2 -73 1z"/>
<path d="M5808 4875 c-2 -1 -29 -5 -61 -9 -240 -25 -434 -171 -535 -401 -32
-74 -66 -188 -77 -265 -4 -25 -9 -54 -11 -65 -23 -115 -23 -505 -1 -645 19
-114 21 -125 40 -182 81 -238 237 -377 496 -440 121 -30 401 -32 511 -4 290
74 466 283 525 621 2 17 7 39 9 50 17 86 24 420 11 528 -39 314 -221 599 -460
719 -103 52 -148 67 -245 82 -47 7 -197 15 -202 11z"/>
<path d="M3349 4146 c-2 -2 -23 -6 -46 -9 -214 -30 -462 -159 -638 -333 -73
-72 -111 -122 -224 -292 -175 -261 -385 -495 -645 -717 -81 -69 -140 -120
-211 -185 -34 -30 -115 -96 -180 -147 -249 -190 -439 -400 -539 -592 -15 -30
-32 -62 -36 -70 -46 -88 -93 -245 -108 -361 -9 -71 -8 -239 2 -310 4 -25 15
-81 25 -125 107 -448 354 -753 711 -877 137 -47 223 -56 540 -57 235 0 347 5
505 25 28 4 61 8 75 9 32 3 108 14 140 20 14 3 39 7 55 10 17 2 84 15 150 29
109 22 164 32 235 41 160 22 504 22 615 1 11 -2 45 -7 76 -10 31 -4 67 -9 80
-11 13 -3 38 -8 54 -11 40 -7 132 -30 234 -60 46 -13 98 -27 114 -30 17 -2 33
-6 36 -8 3 -2 22 -7 41 -10 19 -3 60 -10 90 -16 136 -27 279 -41 450 -45 304
-6 519 34 710 130 246 124 394 308 496 612 58 176 76 279 80 453 4 175 -10
272 -56 412 -76 228 -186 379 -400 552 -382 308 -791 706 -1076 1046 -80 95
-203 257 -240 315 -23 37 -20 32 -96 130 -190 245 -431 412 -678 470 -67 16
-329 32 -341 21z m-109 -1127 c13 -6 15 -148 14 -1191 -1 -650 -2 -1186 -3
-1189 -2 -9 -1001 -4 -1036 5 -234 62 -436 198 -545 368 -36 54 -92 206 -104
278 -32 189 -24 402 20 517 97 259 284 447 532 537 100 36 133 39 427 40 l260
1 1 310 c1 171 2 316 3 323 1 11 43 13 209 11 114 -1 214 -6 222 -10z m720
-744 c1 -33 1 -290 1 -571 l0 -512 27 -41 c16 -25 44 -50 72 -63 43 -22 59
-23 298 -26 l252 -3 0 634 0 633 245 0 c217 1 245 -1 246 -15 3 -55 3 -1630 0
-1648 l-3 -23 -567 0 c-635 0 -610 -2 -756 73 -136 71 -253 210 -271 325 -5
31 -9 614 -9 1284 0 2 375 13 438 13 26 0 27 -1 27 -60z"/>
<path d="M2291 1968 c-82 -39 -179 -134 -213 -208 -63 -136 -74 -336 -25 -458
52 -127 130 -205 257 -257 38 -15 77 -18 266 -19 l221 -1 0 487 0 488 -221 -1
-221 0 -64 -31z"/>
</g>
</svg>
