<?xml version="1.0" encoding="UTF-8"?>
<svg xmlns="http://www.w3.org/2000/svg" xmlns:xlink="http://www.w3.org/1999/xlink" viewBox="0 0 512 512">
  <defs>
    <style>
      .cls-1 {
        fill: #fff;
      }

      .cls-2 {
        fill: #e0e0e0;
      }

      .cls-3 {
        fill: #1a73e8;
      }

      .cls-4 {
        filter: url(#drop-shadow-1);
      }

      .cls-5 {
        fill: #bdbdbd;
      }

      .cls-6 {
        fill: #9e9e9e;
      }
    </style>
    <filter id="drop-shadow-1" filterUnits="userSpaceOnUse">
      <feOffset dx="0" dy="2"/>
      <feGaussianBlur result="blur" stdDeviation="8"/>
      <feFlood flood-color="#000" flood-opacity=".25"/>
      <feComposite in2="blur" operator="in"/>
      <feComposite in="SourceGraphic"/>
    </filter>
  </defs>
  <g id="_图层_1" data-name="图层 1" class="cls-4">
    <path class="cls-6" d="M335.75,431.89s-13.95-18.08-15.11-30.37c-1.16-12.29-3.49-47.06-3.49-47.06l-48.59,23.65s3.26,36.4,11.16,51c7.91,14.37,14.88,41.5,14.88,41.5h68.12c-.23-21.79-26.97-38.71-26.97-38.71h0Z"/>
    <path class="cls-5" d="M73.02,393.64l-10.93-62.82c-.7-4.17-3.95-7.42-8.14-7.88-4.19-.46-8.37,1.62-10,5.56l-19.53,41.5c-.7,1.62-.93,3.25-.93,4.87,.93,11.13,8.37,32.45,29.76,32.45,4.42,0,8.83-.93,13.72-2.78,4.42-1.85,6.98-6.49,6.05-10.9h0Z"/>
    <g id="_耳朵" data-name="耳朵">
      <path class="cls-6" d="M425.85,114.14c.98-12.12-5.62-28.74-19.83-50.81-10-15.22-19.96-27.35-20.32-27.9-2.05-2.58-5.13-3.73-8.51-3.51-3.15,.26-5.97,2.26-7.52,5.01-1.23,2.34-30.2,56.55-32.81,83.74-2.56,26.97,9.62,74.69,10.13,76.7,.64,2.51,2.34,4.54,4.41,5.94,.86,.42,1.95,.9,2.85,1.09,1.59,.35,3.05,.19,4.56-.19l41.14-10.76c3.02-.77,5.43-3.09,6.58-6.16,.85-1.71,17.48-48.4,19.32-73.15Z"/>
      <path class="cls-5" d="M414.1,106.18c-1.63-12.05-11.62-26.89-30.22-45.44-13.02-12.75-25.34-22.49-25.81-22.95-2.56-2.09-5.81-2.55-9.07-1.62-3.02,.93-5.35,3.48-6.28,6.49-.7,2.55-17.44,61.66-14.18,88.79,3.25,26.89,25.34,70.94,26.27,72.79,1.16,2.32,3.25,3.94,5.58,4.87,.93,.23,2.09,.46,3.02,.46,1.63,0,3.02-.46,4.42-1.16l37.9-19.24c2.79-1.39,4.65-4.17,5.11-7.42,.47-1.85,6.74-51,3.26-75.57Z"/>
    </g>
    <path class="cls-1" d="M112.08,430.27c-8.14,0-12.56-.23-12.79-.23-2.79-.23-5.35-1.39-6.97-3.48l-48.13-59.35c-1.4-1.85-2.09-3.94-2.09-6.26,.23-7.65,1.86-76.04,12.79-97.13,.23-.7,.7-1.39,.93-2.09,5.12-9.97,12.32-23.88,31.15-37.56,20.92-15.07,52.55-27.59,96.49-38.02,19.76-4.64,38.36-6.95,55.1-6.95,43.01,0,65.33,15.53,75.1,25.5l64.17-40.11c1.63-.93,3.25-1.39,5.11-1.39,6.51,0,41.39,9.27,59.29,28.51,16.27,17.85,43.25,56.1,44.41,57.72,1.16,1.62,1.86,3.48,1.86,5.56v13.45c0,1.85-.7,3.94-1.63,5.56l-10.93,15.53c-.46,.7-1.16,1.39-1.86,2.09-1.16,.93-25.57,20.17-59.05,22.02-4.19,5.8-13.95,20.4-29.3,49.84-18.6,35.47-55.1,40.11-101.14,45.9-16.74,2.09-35.57,4.4-55.57,8.58-53.94,10.66-96.49,12.29-116.95,12.29h0Z"/>
    <path class="cls-3" d="M430.37,219.48c0,3.65-4.42,9.56-9.76,9.56s-9.76-4.4-9.76-9.74,4.42-9.74,9.76-9.74h0c5.35,0,9.76,6.36,9.76,9.91Z"/>
    <path class="cls-2" d="M314.12,447.42c-.46-9.27-7.91-16.46-22.32-21.33-8.37-2.78-16.51-3.94-16.97-3.94h-57.19l.93-1.39c11.62-18.08,12.79-26.2,13.02-30.83,1.16-30.14-4.42-48.68-23.71-70.47-10.23-11.59-28.6-18.78-57.43-18.78-15.58,0-28.36,1.85-28.83,1.85-1.63,.23-3.26,.93-4.65,2.09l-49.75,40.11c-.7,.46-1.4,1.16-1.86,1.85-13.02,18.55-15.58,41.5-7.21,66.07,6.05,17.85,15.81,30.37,16.27,31.06,2.09,2.55,5.35,3.94,8.6,3.71l27.43-2.55-.47,25.5c0,2.55,.93,5.1,2.79,6.95s4.42,2.78,6.97,2.78h174.84c2.56,0,5.11-.93,6.74-2.78,1.39-1.39,13.48-13.91,12.79-29.9h0Z"/>
  </g>
</svg>