<?xml version="1.0" encoding="UTF-8"?>
<svg id="_图层_1" data-name="图层 1" xmlns="http://www.w3.org/2000/svg" xmlns:xlink="http://www.w3.org/1999/xlink" viewBox="0 0 512 512">
  <defs>
    <style>
      .cls-1 {
        fill: #fff;
      }

      .cls-2 {
        fill: #e0e0e0;
      }

      .cls-3 {
        fill: #1a73e8;
      }

      .cls-4 {
        filter: url(#drop-shadow-1);
      }

      .cls-5 {
        fill: #bdbdbd;
      }

      .cls-6 {
        fill: #9e9e9e;
      }
    </style>
    <filter id="drop-shadow-1" filterUnits="userSpaceOnUse">
      <feOffset dx="0" dy="2"/>
      <feGaussianBlur result="blur" stdDeviation="8"/>
      <feFlood flood-color="#000" flood-opacity=".25"/>
      <feComposite in2="blur" operator="in"/>
      <feComposite in="SourceGraphic"/>
    </filter>
  </defs>
  <rect class="cls-1" y="0" width="512" height="512"/>
  <rect class="cls-3" y="0" width="512" height="512"/>
  <g class="cls-4">
    <path class="cls-6" d="M315.41,387.03s-10.39-13.47-11.26-22.62c-.87-9.15-2.6-35.06-2.6-35.06l-36.2,17.61s2.42,27.11,8.31,37.99c5.89,10.71,11.08,30.91,11.08,30.91h50.75c-.17-16.23-20.09-28.84-20.09-28.84h0Z"/>
    <path class="cls-5" d="M119.69,358.53l-8.14-46.8c-.52-3.11-2.94-5.53-6.06-5.87-3.12-.35-6.24,1.21-7.45,4.14l-14.55,30.91c-.52,1.21-.69,2.42-.69,3.63,.69,8.29,6.24,24.18,22.17,24.18,3.29,0,6.58-.69,10.22-2.07,3.29-1.38,5.2-4.84,4.5-8.12h0Z"/>
    <g id="_耳朵" data-name="耳朵">
      <path class="cls-6" d="M382.53,150.32c.73-9.03-4.18-21.41-14.77-37.85-7.45-11.34-14.87-20.37-15.13-20.79-1.53-1.92-3.83-2.78-6.34-2.61-2.35,.2-4.45,1.69-5.6,3.73-.91,1.75-22.5,42.13-24.44,62.38-1.91,20.09,7.16,55.64,7.55,57.14,.48,1.87,1.74,3.38,3.29,4.43,.64,.32,1.45,.67,2.13,.82,1.18,.26,2.27,.14,3.4-.15l30.64-8.01c2.25-.57,4.05-2.3,4.9-4.59,.63-1.28,13.02-36.06,14.39-54.49Z"/>
      <path class="cls-5" d="M373.77,144.39c-1.21-8.98-8.66-20.03-22.52-33.85-9.7-9.5-18.88-16.75-19.22-17.1-1.91-1.55-4.33-1.9-6.75-1.21-2.25,.69-3.98,2.59-4.68,4.84-.52,1.9-12.99,45.94-10.57,66.14,2.42,20.03,18.88,52.84,19.57,54.23,.87,1.73,2.42,2.94,4.16,3.63,.69,.17,1.56,.35,2.25,.35,1.21,0,2.25-.35,3.29-.86l28.23-14.33c2.08-1.04,3.46-3.11,3.81-5.53,.35-1.38,5.02-37.99,2.42-56.3Z"/>
    </g>
    <path class="cls-1" d="M148.79,385.82c-6.06,0-9.35-.17-9.53-.17-2.08-.17-3.98-1.04-5.2-2.59l-35.85-44.21c-1.04-1.38-1.56-2.94-1.56-4.66,.17-5.7,1.39-56.64,9.53-72.36,.17-.52,.52-1.04,.69-1.55,3.81-7.43,9.18-17.79,23.21-27.98,15.59-11.22,39.14-20.55,71.88-28.32,14.72-3.45,28.58-5.18,41.05-5.18,32.04,0,48.67,11.57,55.94,19l47.8-29.88c1.21-.69,2.42-1.04,3.81-1.04,4.85,0,30.83,6.91,44.17,21.24,12.12,13.3,32.21,41.79,33.08,43,.87,1.21,1.39,2.59,1.39,4.14v10.02c0,1.38-.52,2.94-1.21,4.14l-8.14,11.57c-.35,.52-.87,1.04-1.39,1.55-.87,.69-19.05,15.02-43.99,16.41-3.12,4.32-10.39,15.2-21.82,37.13-13.86,26.42-41.05,29.88-75.34,34.19-12.47,1.55-26.5,3.28-41.39,6.39-40.18,7.94-71.88,9.15-87.12,9.15h0Z"/>
    <path class="cls-3" d="M385.9,228.8c0,2.72-3.29,7.12-7.27,7.12s-7.27-3.28-7.27-7.25,3.29-7.25,7.27-7.25h0c3.98,0,7.27,4.74,7.27,7.38Z"/>
    <path class="cls-2" d="M299.3,398.6c-.35-6.91-5.89-12.26-16.63-15.89-6.24-2.07-12.3-2.94-12.64-2.94h-42.61l.69-1.04c8.66-13.47,9.53-19.51,9.7-22.97,.87-22.45-3.29-36.27-17.67-52.5-7.62-8.63-21.3-13.99-42.78-13.99-11.6,0-21.13,1.38-21.48,1.38-1.21,.17-2.42,.69-3.46,1.55l-37.06,29.88c-.52,.35-1.04,.86-1.39,1.38-9.7,13.82-11.6,30.91-5.37,49.22,4.5,13.3,11.78,22.62,12.12,23.14,1.56,1.9,3.98,2.94,6.41,2.76l20.44-1.9-.35,19c0,1.9,.69,3.8,2.08,5.18s3.29,2.07,5.2,2.07h130.24c1.91,0,3.81-.69,5.02-2.07,1.04-1.04,10.05-10.36,9.53-22.28h0Z"/>
  </g>
</svg>