<?xml version="1.0" encoding="UTF-8"?>
<svg id="_图层_1" data-name="图层 1" xmlns="http://www.w3.org/2000/svg" viewBox="0 0 512 512">
  <defs>
    <style>
      .cls-1 {
        fill: #fff;
      }

      .cls-2 {
        fill: #e0e0e0;
      }

      .cls-3 {
        fill: #1a73e8;
      }

      .cls-4 {
        fill: #bdbdbd;
      }

      .cls-5 {
        fill: #9e9e9e;
      }

      .cls-6 {
        opacity: .25;
      }
    </style>
  </defs>
  <rect class="cls-1" y="0" width="512" height="512"/>
  <rect class="cls-3" y="0" width="512" height="512"/>
  <g>
    <path class="cls-6" d="M427.81,251.12c-.87-1.21-20.96-29.7-33.08-43-5.96-6.4-14.44-11.32-22.43-14.8,.03-.25,.06-.49,.08-.75,3.93-12.12,9.27-30.49,10.14-42.24,.73-9.03-4.18-21.41-14.77-37.85-7.45-11.34-14.87-20.37-15.13-20.79-1.53-1.92-3.83-2.78-6.34-2.61-2.35,.2-4.45,1.69-5.6,3.73-.19,.36-1.26,2.38-2.85,5.5-3.37-2.88-5.63-4.68-5.8-4.85-1.91-1.55-4.33-1.9-6.75-1.21-2.25,.69-3.98,2.59-4.68,4.84-.52,1.9-12.99,45.94-10.56,66.14,1.2,9.92,5.84,22.97,10.31,33.79,.48,2.39,.95,4.6,1.38,6.55l-22.77,14.23c-7.27-7.43-23.9-19-55.94-19-12.47,0-26.33,1.73-41.05,5.18-32.73,7.77-56.29,17.1-71.88,28.32-14.03,10.19-19.4,20.55-23.21,27.98-.17,.52-.52,1.04-.69,1.55-4.87,9.4-7.26,31.41-8.43,48.8l-14.26,30.29c-.52,1.21-.69,2.42-.69,3.63,.69,8.29,6.24,24.18,22.17,24.18,.79,0,1.59-.04,2.39-.13,.38,1.36,.78,2.72,1.25,4.1,4.5,13.3,11.78,22.62,12.12,23.14,1.56,1.9,3.98,2.94,6.41,2.76l20.44-1.9-.35,19c0,1.9,.69,3.8,2.08,5.18,1.39,1.38,3.29,2.07,5.2,2.07h130.24c1.91,0,3.81-.69,5.02-2.07,.42-.42,2.16-2.23,4.04-5.01h41.68c-.17-16.23-20.09-28.84-20.09-28.84,0,0-9.04-11.72-10.96-20.73,21.4-4.11,38.24-11.24,48.19-30.22,11.43-21.93,18.71-32.81,21.82-37.13,24.94-1.38,43.13-15.72,43.99-16.41,.52-.52,1.04-1.04,1.39-1.55l8.14-11.57c.69-1.21,1.21-2.76,1.21-4.14v-10.02c0-1.55-.52-2.94-1.39-4.14Zm-158.82,128.66h-41.57l.69-1.04c.15-.23,.28-.44,.42-.67,2.42-.44,4.88-.91,7.37-1.4,11.73-2.45,22.9-4.03,33.22-5.36,.7,3.07,1.51,6.05,2.42,8.68-.87-.14-1.42-.21-1.52-.21h-1.04Z"/>
    <path class="cls-5" d="M314.24,383.49s-10.25-13.29-11.1-22.31c-.85-9.03-2.56-34.58-2.56-34.58l-35.7,17.37s2.39,26.74,8.2,37.47c5.81,10.56,10.93,30.49,10.93,30.49h50.05c-.17-16.01-19.82-28.44-19.82-28.44h0Z"/>
    <path class="cls-4" d="M121.2,355.39l-8.03-46.16c-.51-3.07-2.9-5.45-5.98-5.79-3.07-.34-6.15,1.19-7.35,4.09l-14.35,30.49c-.51,1.19-.68,2.38-.68,3.58,.68,8.18,6.15,23.85,21.87,23.85,3.25,0,6.49-.68,10.08-2.04,3.25-1.36,5.12-4.77,4.44-8.01h0Z"/>
    <g id="_耳朵" data-name="耳朵">
      <path class="cls-5" d="M380.44,150.03c.72-8.91-4.13-21.12-14.57-37.33-7.35-11.18-14.67-20.1-14.93-20.5-1.51-1.9-3.77-2.74-6.25-2.58-2.32,.19-4.38,1.66-5.52,3.68-.9,1.72-22.19,41.55-24.11,61.53-1.88,19.81,7.07,54.88,7.44,56.35,.47,1.85,1.72,3.34,3.24,4.37,.63,.31,1.43,.66,2.1,.8,1.17,.25,2.24,.14,3.35-.14l30.22-7.9c2.22-.56,3.99-2.27,4.84-4.53,.62-1.26,12.84-35.56,14.19-53.75Z"/>
      <path class="cls-4" d="M371.81,144.18c-1.2-8.86-8.54-19.76-22.21-33.38-9.57-9.37-18.62-16.52-18.96-16.86-1.88-1.53-4.27-1.87-6.66-1.19-2.22,.68-3.93,2.55-4.61,4.77-.51,1.87-12.81,45.31-10.42,65.24,2.39,19.76,18.62,52.12,19.3,53.48,.85,1.7,2.39,2.9,4.1,3.58,.68,.17,1.54,.34,2.22,.34,1.2,0,2.22-.34,3.25-.85l27.84-14.14c2.05-1.02,3.42-3.07,3.76-5.45,.34-1.36,4.95-37.47,2.39-55.53Z"/>
    </g>
    <path class="cls-1" d="M149.9,382.3c-5.98,0-9.22-.17-9.4-.17-2.05-.17-3.93-1.02-5.12-2.55l-35.36-43.6c-1.02-1.36-1.54-2.9-1.54-4.6,.17-5.62,1.37-55.87,9.4-71.37,.17-.51,.51-1.02,.68-1.53,3.76-7.32,9.05-17.54,22.89-27.59,15.37-11.07,38.61-20.27,70.89-27.93,14.52-3.41,28.19-5.11,40.49-5.11,31.6,0,48,11.41,55.18,18.74l47.15-29.47c1.2-.68,2.39-1.02,3.76-1.02,4.78,0,30.41,6.81,43.56,20.95,11.96,13.12,31.77,41.22,32.63,42.41,.85,1.19,1.37,2.55,1.37,4.09v9.88c0,1.36-.51,2.9-1.2,4.09l-8.03,11.41c-.34,.51-.85,1.02-1.37,1.53-.85,.68-18.79,14.82-43.39,16.18-3.07,4.26-10.25,14.99-21.52,36.62-13.67,26.06-40.49,29.47-74.31,33.73-12.3,1.53-26.14,3.24-40.83,6.3-39.63,7.84-70.89,9.03-85.93,9.03h0Z"/>
    <path class="cls-3" d="M383.76,227.43c0,2.68-3.24,7.03-7.17,7.03s-7.17-3.24-7.17-7.15,3.25-7.15,7.17-7.15h0c3.93,0,7.17,4.67,7.17,7.28Z"/>
    <path class="cls-2" d="M298.35,394.9c-.34-6.81-5.81-12.09-16.4-15.67-6.15-2.04-12.13-2.9-12.47-2.9h-42.02l.68-1.02c8.54-13.29,9.4-19.25,9.57-22.65,.85-22.14-3.25-35.77-17.42-51.78-7.52-8.52-21.01-13.8-42.19-13.8-11.45,0-20.84,1.36-21.18,1.36-1.2,.17-2.39,.68-3.42,1.53l-36.56,29.47c-.51,.34-1.02,.85-1.37,1.36-9.57,13.63-11.45,30.49-5.3,48.54,4.44,13.12,11.62,22.31,11.96,22.82,1.54,1.87,3.93,2.9,6.32,2.73l20.16-1.87-.34,18.74c0,1.87,.68,3.75,2.05,5.11s3.25,2.04,5.12,2.04h128.46c1.88,0,3.76-.68,4.95-2.04,1.02-1.02,9.91-10.22,9.4-21.97h0Z"/>
  </g>
</svg>