<?xml version="1.0" encoding="UTF-8"?>
<svg id="_图层_1" data-name="图层 1" xmlns="http://www.w3.org/2000/svg" viewBox="0 0 512 512">
  <defs>
    <style>
      .cls-1 {
        fill: #fff;
      }

      .cls-2 {
        fill: #e0e0e0;
      }

      .cls-3 {
        fill: #1a73e8;
      }

      .cls-4 {
        fill: #bdbdbd;
      }

      .cls-5 {
        fill: #9e9e9e;
      }

      .cls-6 {
        opacity: .25;
      }
    </style>
  </defs>
  <path class="cls-6" d="M486.64,249.45c-1.16-1.62-28.13-39.87-44.41-57.72-8-8.59-19.38-15.19-30.11-19.87,.04-.33,.07-.66,.11-1.01,5.27-16.27,12.44-40.94,13.62-56.71,.98-12.12-5.62-28.74-19.83-50.81-10-15.22-19.96-27.35-20.32-27.9-2.05-2.58-5.13-3.73-8.51-3.51-3.15,.26-5.97,2.26-7.52,5.01-.25,.48-1.69,3.19-3.83,7.38-4.53-3.87-7.56-6.29-7.78-6.51-2.56-2.09-5.81-2.55-9.07-1.62-3.02,.93-5.35,3.48-6.28,6.49-.7,2.55-17.44,61.66-14.18,88.79,1.61,13.32,7.84,30.84,13.83,45.36,.64,3.21,1.27,6.17,1.85,8.8l-30.56,19.1c-9.77-9.97-32.09-25.5-75.1-25.5-16.74,0-35.34,2.32-55.1,6.95-43.94,10.43-75.56,22.95-96.49,38.02-18.83,13.68-26.04,27.59-31.15,37.56-.23,.7-.7,1.39-.93,2.09-6.54,12.62-9.75,42.17-11.32,65.51l-19.14,40.67c-.7,1.62-.93,3.25-.93,4.87,.93,11.13,8.37,32.45,29.76,32.45,1.07,0,2.13-.06,3.2-.17,.51,1.82,1.05,3.66,1.68,5.5,6.05,17.85,15.81,30.37,16.27,31.06,2.09,2.55,5.35,3.94,8.6,3.71l27.43-2.55-.46,25.5c0,2.55,.93,5.1,2.79,6.95,1.86,1.85,4.42,2.78,6.97,2.78h174.84c2.56,0,5.11-.93,6.74-2.78,.57-.57,2.91-2.99,5.43-6.72h55.95c-.23-21.79-26.97-38.71-26.97-38.71,0,0-12.13-15.74-14.71-27.82,28.73-5.52,51.33-15.09,64.69-40.56,15.34-29.44,25.11-44.05,29.29-49.84,33.48-1.85,57.89-21.1,59.05-22.02,.7-.7,1.4-1.39,1.86-2.09l10.93-15.53c.93-1.62,1.63-3.71,1.63-5.56v-13.45c0-2.09-.7-3.94-1.86-5.56Zm-213.2,172.71h-55.8l.93-1.39c.2-.31,.37-.6,.57-.9,3.25-.59,6.55-1.22,9.9-1.88,15.74-3.29,30.74-5.42,44.59-7.19,.94,4.12,2.02,8.12,3.25,11.65-1.16-.19-1.91-.28-2.04-.28h-1.39Z"/>
  <path class="cls-5" d="M334.18,427.14s-13.76-17.83-14.91-29.95c-1.15-12.12-3.44-46.42-3.44-46.42l-47.93,23.32s3.21,35.9,11.01,50.3c7.8,14.18,14.68,40.93,14.68,40.93h67.19c-.23-21.49-26.6-38.18-26.6-38.18h0Z"/>
  <path class="cls-4" d="M75.05,389.42l-10.78-61.96c-.69-4.12-3.9-7.32-8.03-7.77-4.13-.46-8.26,1.6-9.86,5.49l-19.26,40.93c-.69,1.6-.92,3.2-.92,4.8,.92,10.98,8.26,32.01,29.35,32.01,4.36,0,8.71-.91,13.53-2.74,4.36-1.83,6.88-6.4,5.96-10.75h0Z"/>
  <g id="_耳朵" data-name="耳朵">
    <path class="cls-5" d="M423.05,113.74c.97-11.96-5.54-28.35-19.56-50.12-9.86-15.01-19.69-26.98-20.04-27.52-2.03-2.55-5.06-3.67-8.4-3.46-3.11,.26-5.89,2.23-7.42,4.94-1.21,2.31-29.79,55.78-32.36,82.6-2.53,26.6,9.48,73.67,9.99,75.65,.63,2.48,2.31,4.48,4.35,5.86,.85,.42,1.92,.88,2.82,1.08,1.57,.34,3.01,.19,4.5-.19l40.57-10.61c2.98-.76,5.36-3.05,6.49-6.08,.84-1.69,17.24-47.74,19.05-72.15Z"/>
    <path class="cls-4" d="M411.46,105.89c-1.61-11.89-11.47-26.52-29.81-44.82-12.84-12.58-25-22.18-25.45-22.64-2.52-2.06-5.73-2.52-8.94-1.6-2.98,.91-5.27,3.43-6.19,6.4-.69,2.52-17.2,60.82-13.99,87.57,3.21,26.52,25,69.97,25.91,71.8,1.15,2.29,3.21,3.89,5.5,4.8,.92,.23,2.06,.46,2.98,.46,1.61,0,2.98-.46,4.36-1.14l37.38-18.98c2.75-1.37,4.59-4.12,5.04-7.32,.46-1.83,6.65-50.3,3.21-74.54Z"/>
  </g>
  <path class="cls-1" d="M113.57,425.54c-8.03,0-12.38-.23-12.61-.23-2.75-.23-5.27-1.37-6.88-3.43l-47.47-58.53c-1.38-1.83-2.06-3.89-2.06-6.17,.23-7.55,1.83-75,12.61-95.8,.23-.69,.69-1.37,.92-2.06,5.04-9.83,12.15-23.55,30.73-37.04,20.64-14.86,51.83-27.21,95.17-37.5,19.49-4.57,37.84-6.86,54.35-6.86,42.42,0,64.44,15.32,74.07,25.15l63.29-39.56c1.61-.91,3.21-1.37,5.04-1.37,6.42,0,40.82,9.15,58.48,28.12,16.05,17.61,42.65,55.33,43.8,56.93,1.15,1.6,1.83,3.43,1.83,5.49v13.26c0,1.83-.69,3.89-1.61,5.49l-10.78,15.32c-.46,.69-1.15,1.37-1.83,2.06-1.15,.91-25.22,19.89-58.25,21.72-4.13,5.72-13.76,20.12-28.89,49.16-18.35,34.98-54.35,39.56-99.75,45.27-16.51,2.06-35.09,4.34-54.81,8.46-53.2,10.52-95.17,12.12-115.35,12.12h0Z"/>
  <path class="cls-3" d="M427.51,217.64c0,3.6-4.35,9.43-9.63,9.43s-9.63-4.34-9.63-9.6,4.36-9.6,9.63-9.6h0c5.27,0,9.63,6.28,9.63,9.77Z"/>
  <path class="cls-2" d="M312.85,442.46c-.46-9.15-7.8-16.23-22.01-21.04-8.26-2.74-16.28-3.89-16.74-3.89h-56.41l.92-1.37c11.47-17.83,12.61-25.84,12.84-30.41,1.15-29.72-4.36-48.02-23.39-69.51-10.09-11.43-28.21-18.52-56.64-18.52-15.36,0-27.98,1.83-28.44,1.83-1.61,.23-3.21,.91-4.59,2.06l-49.07,39.56c-.69,.46-1.38,1.14-1.83,1.83-12.84,18.29-15.36,40.93-7.11,65.16,5.96,17.61,15.59,29.95,16.05,30.64,2.06,2.52,5.27,3.89,8.48,3.66l27.06-2.52-.46,25.15c0,2.52,.92,5.03,2.75,6.86s4.36,2.74,6.88,2.74h172.45c2.52,0,5.04-.91,6.65-2.74,1.38-1.37,13.3-13.72,12.61-29.5h0Z"/>
</svg>