<svg xmlns="http://www.w3.org/2000/svg" xmlns:xlink="http://www.w3.org/1999/xlink" width="1920" height="970" viewBox="0 0 1920 970" fill="none"><g opacity="1"  transform="translate(0 0)  rotate(0)"><mask id="bg-mask-0" fill="white"><use xlink:href="#path_0"></use></mask><g mask="url(#bg-mask-0)" ><path id="路径 1" fill-rule="evenodd" style="fill:#D2E3FC" opacity="0.15" d="M0,0zM716,914.5c-113,-24 -145.52,-125.57 -317,-157.36c-64.41,-11.94 -174.44,58.72 -239.64,68.13c-108.37,15.63 -159.36,-20.12 -159.36,-20.12v-190.95v-614.2h1920v550.2v206.94c0,0 -37.08,-17.28 -111.52,19.45c-49.21,24.27 -128.26,107.86 -175.38,107.86c-118.39,0 -97.38,-41.8 -186.6,-27.13c-89.22,14.68 -60,27.13 -187,94.68c-127,67.55 -176,-105.48 -307,-94.68c-74.64,6.16 -123.5,81.18 -236.5,57.18z"></path><path id="路径 2" fill-rule="evenodd" style="fill:#E0E0E0" opacity="0.2" d="M0,0zM0,0h1920v537.78c-3.56,-4.46 -18.36,-7.55 -71,6.22c-86,22.5 -150,178 -288,178c-138,0 -222,-107.8 -438,-108c-216,-0.2 -308,211.5 -464,211.5c-156,0 -154,-79 -252,-103.5c-98,-24.5 -210,23.5 -298,-22c-88,-45.5 -109,-85.8 -109,-85.8zM1920,537.78c2.26,2.83 0,6.22 0,6.22z"></path></g></g><defs><rect id="path_0" x="0" y="0" width="1920" height="970" /></defs></svg>