<svg xmlns="http://www.w3.org/2000/svg" xmlns:xlink="http://www.w3.org/1999/xlink" width="1920.4169921875" height="1488" viewBox="0 0 1920.4169921875 1488" fill="none"><g opacity="1"  transform="translate(0 0)  rotate(0)"><path id="路径 1" fill-rule="evenodd" style="fill:#D2E3FC" opacity="0.15" d="M0.91695 1156.43C0.91695 1156.43 -1.67305 1156.43 58.917 1156.43C119.497 1156.43 134.327 1040 208.917 1082C283.497 1124 380.917 1268 511.497 1268C642.087 1268 661.497 1156.43 763.497 1156.43C865.497 1156.43 926.057 1207.61 1015.5 1228.43C1104.95 1249.24 1152.14 1207.7 1219.5 1228.43C1286.87 1249.15 1266.1 1307.7 1354.92 1328.43C1443.73 1349.15 1424.3 1293.19 1582.92 1328.43C1741.53 1363.66 1919.92 1479.93 1919.92 1479.93L1919.92 48C1919.92 48 1919.92 14 1837.5 14C1755.09 14 1707.7 147.23 1582.92 162C1458.13 176.77 1491.5 132 1377.5 132C1263.5 132 1291.5 212.43 1129.5 256C967.497 299.57 943.507 320.81 798.917 308.43C654.317 296.04 658.917 220 511.497 220C364.087 220 281.497 404.43 208.917 404.43C136.327 404.43 107.497 308.43 58.917 308.43C10.327 308.43 0.91695 330.43 0.91695 330.43L0.91695 1156.43Z"></path></g></svg>