<?xml version="1.0" encoding="UTF-8"?>
<svg id="a" data-name="图层 1" xmlns="http://www.w3.org/2000/svg" viewBox="0 0 853 480">
  <defs>
    <style>
      .b {
        opacity: .6;
      }
    </style>
  </defs>
  <g>
    <path d="M101.69,214.65v-15.55l36-20.96h11.49v123.88h-15.21v-105.79l-32.28,18.42Z"/>
    <path d="M198.02,214.65v-15.55l36-20.96h11.49v123.88h-15.21v-105.79l-32.28,18.42Z"/>
    <path d="M294.94,214.48c-1.86-1.92-2.79-4.23-2.79-6.93s.93-5.01,2.79-6.93c1.86-1.91,4.08-2.87,6.68-2.87s4.99,.96,6.84,2.87c1.86,1.92,2.79,4.23,2.79,6.93s-.93,5.01-2.79,6.93c-1.86,1.92-4.14,2.87-6.84,2.87s-4.82-.96-6.68-2.87Zm0,65.23c-1.86-1.91-2.79-4.22-2.79-6.93s.93-5.01,2.79-6.93c1.86-1.92,4.08-2.87,6.68-2.87s4.99,.96,6.84,2.87c1.86,1.92,2.79,4.22,2.79,6.93s-.93,5.01-2.79,6.93c-1.86,1.92-4.14,2.87-6.84,2.87s-4.82-.96-6.68-2.87Z"/>
    <path d="M394.39,228.26c5.75,3.44,10.2,8.17,13.35,14.2,3.15,6.03,4.73,12.87,4.73,20.53s-1.75,15.1-5.24,21.29c-3.49,6.2-8.28,11.01-14.37,14.45s-12.84,5.15-20.28,5.15c-8.23,0-15.52-2.05-21.89-6.17-6.37-4.11-10.79-10.11-13.27-18l12.17-6.93c2.03,5.75,4.99,10.08,8.87,13.01,3.89,2.93,8.59,4.39,14.11,4.39,7.44,0,13.29-2.48,17.58-7.44,4.28-4.96,6.42-11.32,6.42-19.1s-2.06-13.91-6.17-19.1c-4.11-5.18-10.06-7.77-17.83-7.77-9.8,0-17.47,4.45-22.98,13.35l-9.63-4.9,8.45-67.26h58.47v13.18h-45.29l-4.9,36.67c4.96-3.15,10.99-4.73,18.08-4.73s13.86,1.72,19.6,5.15Z"/>
    <path d="M490.21,181.19c6.08,3.38,10.82,8.11,14.2,14.2s5.07,13.01,5.07,20.79c0,6.08-1.1,11.69-3.3,16.82-2.2,5.13-5.83,11.86-10.9,20.2l-29.58,48.67h-17.07l25.52-41.57c1.58-2.48,3.15-4.79,4.73-6.93-3.49,1.13-7.38,1.69-11.66,1.69-7.33,0-13.86-1.75-19.6-5.24-5.75-3.49-10.22-8.22-13.43-14.2-3.21-5.97-4.82-12.56-4.82-19.77s1.72-14.2,5.16-20.28c3.44-6.08,8.22-10.84,14.36-14.28,6.14-3.44,12.98-5.15,20.53-5.15s14.7,1.69,20.79,5.07Zm-3.3,52.81c4.34-4.79,6.51-11.01,6.51-18.67s-2.17-13.83-6.51-18.51c-4.34-4.67-10.17-7.01-17.49-7.01s-12.99,2.37-17.32,7.1c-4.34,4.73-6.51,10.87-6.51,18.42s2.14,13.89,6.42,18.67c4.28,4.79,10.08,7.18,17.41,7.18s13.15-2.39,17.49-7.18Z"/>
    <path d="M535.76,214.48c-1.86-1.92-2.79-4.23-2.79-6.93s.93-5.01,2.79-6.93c1.86-1.91,4.08-2.87,6.68-2.87s4.99,.96,6.84,2.87c1.86,1.92,2.79,4.23,2.79,6.93s-.93,5.01-2.79,6.93c-1.86,1.92-4.14,2.87-6.84,2.87s-4.82-.96-6.68-2.87Zm0,65.23c-1.86-1.91-2.79-4.22-2.79-6.93s.93-5.01,2.79-6.93c1.86-1.92,4.08-2.87,6.68-2.87s4.99,.96,6.84,2.87c1.86,1.92,2.79,4.22,2.79,6.93s-.93,5.01-2.79,6.93c-1.86,1.92-4.14,2.87-6.84,2.87s-4.82-.96-6.68-2.87Z"/>
    <path d="M598.03,288.67h55.94v13.35h-78.92v-9.63l40.05-44.62c7.55-8.34,12.73-14.9,15.55-19.69,2.82-4.79,4.23-10,4.23-15.63,0-7.21-1.97-12.79-5.92-16.73-3.95-3.94-8.9-5.92-14.87-5.92s-11.44,2.06-16.06,6.17c-4.62,4.11-7.94,9.55-9.97,16.31l-12.17-6.93c2.48-9.24,7.38-16.42,14.7-21.55,7.32-5.12,15.49-7.69,24.5-7.69,6.53,0,12.51,1.38,17.91,4.14,5.41,2.76,9.72,6.82,12.93,12.17,3.21,5.35,4.82,11.8,4.82,19.35s-1.8,14.25-5.41,20.79c-3.61,6.54-9.92,14.76-18.93,24.67l-28.39,31.43Z"/>
    <path d="M740.92,287.74c-6.93,10.76-16.87,16.14-29.83,16.14s-22.73-5.41-29.66-16.22c-6.93-10.82-10.39-26.64-10.39-47.49s3.46-36.87,10.39-47.74c6.93-10.87,16.82-16.31,29.66-16.31s22.9,5.41,29.83,16.22c6.93,10.82,10.39,26.76,10.39,47.83s-3.46,36.82-10.39,47.57Zm-48-10.06c3.89,8.23,9.94,12.34,18.17,12.34s14.31-4.08,18.25-12.25c3.94-8.17,5.92-20.7,5.92-37.6s-1.97-29.66-5.92-37.94c-3.95-8.28-10.03-12.42-18.25-12.42s-14.28,4.14-18.17,12.42c-3.89,8.28-5.83,20.93-5.83,37.94s1.94,29.29,5.83,37.52Z"/>
  </g>
  <g class="b">
    <path d="M278.78,389.52v-3.31l7.67-4.46h2.45v26.39h-3.24v-22.54l-6.88,3.92Z"/>
    <path d="M299.29,389.52v-3.31l7.67-4.46h2.45v26.39h-3.24v-22.54l-6.88,3.92Z"/>
    <path d="M355.13,379.58v25.88c0,1.34-.16,2.35-.49,3.01-.32,.66-.89,1.12-1.71,1.37-.82,.25-2.03,.38-3.64,.38-1.13,0-2.39-.06-3.78-.18l-.58-2.84c1.92,.19,3.36,.29,4.32,.29,.86,0,1.5-.07,1.91-.22,.41-.14,.68-.4,.83-.76,.14-.36,.22-.9,.22-1.62v-5h-16.31c-.29,2.23-.81,4.21-1.57,5.92-.76,1.72-1.88,3.55-3.37,5.49l-2.63-1.8c1.49-1.8,2.57-3.43,3.26-4.88s1.15-3.09,1.39-4.91,.36-4.36,.36-7.6v-12.53h21.78Zm-2.92,17.6v-5.94h-15.95v1.19c0,1.73-.04,3.31-.11,4.75h16.06Zm0-8.64v-6.23h-15.95v6.23h15.95Z"/>
    <path d="M375.25,389.52v-3.31l7.67-4.46h2.45v26.39h-3.24v-22.54l-6.88,3.92Z"/>
    <path d="M408.82,405.09c-1.48,2.29-3.59,3.44-6.35,3.44s-4.84-1.15-6.32-3.46c-1.48-2.3-2.21-5.68-2.21-10.12s.74-7.85,2.21-10.17c1.48-2.32,3.58-3.47,6.32-3.47s4.88,1.15,6.35,3.46c1.48,2.3,2.21,5.7,2.21,10.19s-.74,7.84-2.21,10.13Zm-10.22-2.14c.83,1.75,2.12,2.63,3.87,2.63s3.05-.87,3.89-2.61c.84-1.74,1.26-4.41,1.26-8.01s-.42-6.32-1.26-8.08c-.84-1.76-2.14-2.65-3.89-2.65s-3.04,.88-3.87,2.65c-.83,1.76-1.24,4.46-1.24,8.08s.41,6.24,1.24,7.99Z"/>
    <path d="M428.68,410.43v-30.24h23.8v30.2h-2.99v-2.41h-17.78v2.45h-3.02Zm20.81-18.11v-9.18h-17.78v9.18h17.78Zm-17.78,2.92v9.72h17.78v-9.72h-17.78Z"/>
    <path d="M488.58,407.16h13.46v2.41h-30.42v-2.41h14.11v-3.67h-10.4v-2.41h10.4v-3.2h-9.14c-1.25,1.82-2.56,3.46-3.92,4.9l-2.05-1.87c2.66-2.81,4.68-5.68,6.05-8.6l2.52,1.15c-.43,.86-.77,1.5-1.01,1.91h7.56v-2.59h2.84v2.59h12.17v2.52h-12.17v3.2h10.87v2.41h-10.87v3.67Zm-13.79-27.79h23.9v12.53h-23.9v-12.53Zm21.1,5.08v-2.74h-18.32v2.74h18.32Zm-18.32,2.3v2.77h18.32v-2.77h-18.32Z"/>
    <path d="M520.84,399.17h2.7v2.48h-17.68v-2.48h3.38v-14.9h-2.66v-2.48h2.66v-3.6h2.59v3.6h6.48v-3.6h2.52v3.6h2.59v2.48h-2.59v14.9Zm-14.9,9.72c1.82-1.66,3.61-3.85,5.36-6.59l2.23,1.55c-1.99,3-3.82,5.32-5.47,6.95l-2.12-1.91Zm12.38-21.28v-3.35h-6.48v3.35h6.48Zm0,2.45h-6.48v3.35h6.48v-3.35Zm0,5.72h-6.48v3.38h6.48v-3.38Zm-.36,6.59c.29,.43,.74,1.08,1.37,1.94,.29,.41,.62,.88,1.01,1.42s.79,1.12,1.22,1.75l-2.12,1.51-1.33-1.94c-1.08-1.63-1.84-2.71-2.27-3.24l2.12-1.44Zm7.38-22.75h11.48v26.21c0,1.66-.29,2.81-.88,3.46-.59,.65-1.64,.97-3.15,.97-1.03,0-2.08-.07-3.13-.22l-.58-2.7c1.15,.19,2.24,.29,3.28,.29,.72,0,1.21-.19,1.48-.56,.26-.37,.4-1,.4-1.89v-5.62h-6.48c-.17,2.42-.54,4.42-1.12,5.99-.58,1.57-1.57,3.39-2.99,5.45l-2.52-1.66c1.34-1.78,2.3-3.32,2.86-4.64,.56-1.32,.93-2.87,1.1-4.64,.17-1.78,.25-4.46,.25-8.06v-12.38Zm8.89,17.28v-5.9h-6.3v2.38c0,1.63-.01,2.81-.04,3.53h6.34Zm0-8.5v-5.98h-6.3v5.98h6.3Z"/>
    <path d="M542.11,405.79h32.11v2.88h-32.11v-2.88Zm2.05-24.84h27.97v2.99h-27.97v-2.99Zm1.69,11.48h24.66v2.92h-24.66v-2.92Z"/>
  </g>
</svg>